<mxfile host="app.diagrams.net" modified="2023-07-04T19:39:37.673Z" agent="Mozilla/5.0 (Windows NT 10.0; Win64; x64) AppleWebKit/537.36 (KHTML, like Gecko) Chrome/114.0.0.0 Safari/537.36 Edg/114.0.1823.67" etag="0_Q0MU22eUAhtxyHtRN4" version="21.5.2" type="device">
  <diagram name="Página-1" id="wI_QIBwPtZlQ_j5HgBnW">
    <mxGraphModel dx="880" dy="522" grid="1" gridSize="10" guides="1" tooltips="1" connect="1" arrows="1" fold="1" page="1" pageScale="1" pageWidth="827" pageHeight="1169" math="0" shadow="0">
      <root>
        <mxCell id="0" />
        <mxCell id="1" parent="0" />
        <object label="associação&amp;nbsp;&lt;br&gt;&lt;br&gt;&lt;br&gt;&lt;br&gt;&lt;br&gt;&lt;br&gt;&lt;br&gt;" associação="" id="h5jkZjKQKHEDU5x_hcdc-1">
          <mxCell style="ellipse;whiteSpace=wrap;html=1;aspect=fixed;noLabel=0;" vertex="1" parent="1">
            <mxGeometry x="640" y="80" width="220" height="220" as="geometry" />
          </mxCell>
        </object>
        <mxCell id="h5jkZjKQKHEDU5x_hcdc-2" value="Escritor" style="swimlane;fontStyle=0;childLayout=stackLayout;horizontal=1;startSize=26;fillColor=none;horizontalStack=0;resizeParent=1;resizeParentMax=0;resizeLast=0;collapsible=1;marginBottom=0;whiteSpace=wrap;html=1;" vertex="1" parent="1">
          <mxGeometry x="60" y="100" width="140" height="52" as="geometry" />
        </mxCell>
        <mxCell id="h5jkZjKQKHEDU5x_hcdc-3" value="ferramenta&lt;br&gt;" style="text;strokeColor=none;fillColor=none;align=left;verticalAlign=top;spacingLeft=4;spacingRight=4;overflow=hidden;rotatable=0;points=[[0,0.5],[1,0.5]];portConstraint=eastwest;whiteSpace=wrap;html=1;" vertex="1" parent="h5jkZjKQKHEDU5x_hcdc-2">
          <mxGeometry y="26" width="140" height="26" as="geometry" />
        </mxCell>
        <mxCell id="h5jkZjKQKHEDU5x_hcdc-6" value="Ferramenta" style="swimlane;fontStyle=0;childLayout=stackLayout;horizontal=1;startSize=26;fillColor=none;horizontalStack=0;resizeParent=1;resizeParentMax=0;resizeLast=0;collapsible=1;marginBottom=0;whiteSpace=wrap;html=1;" vertex="1" parent="1">
          <mxGeometry x="310" y="113" width="140" height="52" as="geometry" />
        </mxCell>
        <mxCell id="h5jkZjKQKHEDU5x_hcdc-11" style="edgeStyle=orthogonalEdgeStyle;rounded=0;orthogonalLoop=1;jettySize=auto;html=1;exitX=1;exitY=0.5;exitDx=0;exitDy=0;entryX=0;entryY=0.5;entryDx=0;entryDy=0;" edge="1" parent="1" source="h5jkZjKQKHEDU5x_hcdc-3" target="h5jkZjKQKHEDU5x_hcdc-6">
          <mxGeometry relative="1" as="geometry" />
        </mxCell>
      </root>
    </mxGraphModel>
  </diagram>
</mxfile>
